<?xml version="1.0" standalone="no"?>
<!DOCTYPE svg PUBLIC "-//W3C//DTD SVG 20010904//EN"
 "http://www.w3.org/TR/2001/REC-SVG-20010904/DTD/svg10.dtd">
<svg version="1.0" xmlns="http://www.w3.org/2000/svg"
 width="724.000000pt" height="131.000000pt" viewBox="0 0 724.000000 131.000000"
 preserveAspectRatio="xMidYMid meet">

<g transform="translate(0.000000,131.000000) scale(0.100000,-0.100000)"
fill="#000000" stroke="none">
<path d="M0 655 l0 -655 3620 0 3620 0 0 655 0 655 -3620 0 -3620 0 0 -655z
m1224 405 c5 -5 0 -35 -14 -72 -25 -69 -144 -314 -165 -338 -7 -8 -29 -49 -50
-90 -20 -41 -41 -83 -46 -92 -10 -20 -12 -68 -2 -68 3 0 21 11 38 25 18 13 36
21 40 17 3 -4 5 -2 3 3 -1 6 0 10 3 10 17 0 49 40 44 54 -3 8 -3 12 1 9 9 -10
64 67 64 89 -1 11 -10 3 -25 -22 -14 -22 -25 -35 -25 -29 0 23 77 119 103 128
34 12 61 -1 65 -33 5 -30 -17 -91 -33 -91 -20 0 -24 23 -9 51 7 13 13 31 14
38 0 25 -70 -50 -96 -102 -27 -52 -44 -147 -27 -147 20 0 88 32 120 56 17 13
36 24 40 24 18 0 72 67 102 128 33 66 41 71 62 46 10 -13 7 -26 -23 -82 -37
-69 -62 -142 -49 -142 4 0 18 11 31 25 13 14 30 24 38 23 8 -2 17 3 20 11 3 9
0 11 -8 6 -9 -5 -11 -4 -6 4 4 6 11 9 16 6 11 -7 42 37 74 108 27 60 36 66 55
43 10 -11 6 -29 -17 -84 -34 -78 -48 -132 -35 -132 5 0 29 17 54 37 24 21 37
28 28 18 -35 -43 -30 -48 10 -10 23 22 44 50 47 62 4 13 10 21 14 18 5 -3 12
5 16 17 4 13 13 27 19 33 19 15 96 197 90 212 -3 9 0 11 7 7 8 -5 9 -2 5 9 -3
10 -4 24 0 33 5 13 7 13 14 2 7 -10 9 -10 10 2 0 8 3 26 5 40 3 14 5 32 6 41
1 9 8 16 15 16 9 0 8 -7 -3 -28 -8 -15 -14 -32 -14 -36 1 -4 9 8 19 27 10 19
17 40 14 46 -2 7 0 15 6 19 6 3 11 11 11 17 0 6 -7 5 -17 -3 -15 -13 -15 -12
-5 6 27 47 39 56 67 49 38 -9 39 -22 12 -95 -27 -72 -142 -306 -162 -329 -7
-8 -29 -49 -50 -90 -20 -41 -41 -83 -46 -92 -10 -20 -12 -68 -2 -68 3 0 21 11
38 25 18 13 36 21 40 17 3 -4 5 0 3 8 -2 8 4 14 12 15 8 0 34 29 57 65 23 36
49 75 58 88 21 29 66 29 84 0 13 -21 13 -21 33 10 22 35 28 38 45 21 7 -7 1
-33 -23 -91 -32 -75 -43 -128 -26 -128 11 0 142 130 142 141 0 6 4 7 10 4 5
-3 8 0 5 7 -3 7 5 31 18 53 17 30 29 40 47 40 37 0 36 -30 -5 -123 -19 -44
-35 -86 -35 -93 0 -7 17 4 38 24 30 29 41 34 50 25 18 -18 93 58 88 89 -4 17
0 23 12 23 33 -1 49 -24 55 -82 3 -32 8 -62 12 -67 3 -6 23 2 47 20 23 16 48
27 55 25 8 -3 21 11 34 37 42 82 80 116 131 117 15 0 30 -5 33 -10 4 -6 20 -9
37 -6 29 4 29 4 13 -20 -9 -15 -14 -34 -10 -47 5 -16 4 -18 -3 -8 -10 15 -45
-32 -103 -139 -13 -24 -36 -51 -51 -59 -25 -14 -29 -14 -55 5 -21 16 -28 30
-28 56 l0 34 -34 -23 c-19 -13 -41 -23 -51 -23 -25 0 -58 41 -68 85 -4 21 -12
40 -18 42 -6 2 -44 -34 -85 -79 -107 -120 -113 -124 -151 -88 -17 15 -18 20
-6 20 10 0 21 20 32 63 29 109 30 116 7 74 -31 -55 -134 -157 -159 -157 -25 0
-52 36 -52 69 0 23 -4 21 -50 -27 -27 -29 -54 -52 -60 -52 -21 0 -50 21 -50
36 0 9 -13 2 -35 -21 -57 -56 -114 -43 -130 30 -5 23 -4 26 4 15 9 -13 11 -12
11 3 0 11 5 16 13 12 6 -4 4 0 -7 9 -10 8 -15 19 -11 25 3 6 1 11 -4 11 -6 0
-11 -4 -11 -9 0 -13 -85 -101 -99 -101 -6 0 -23 12 -37 27 -22 23 -25 34 -20
68 l6 40 -22 -30 c-13 -16 -42 -50 -65 -75 l-43 -45 -25 28 c-21 24 -24 35
-20 65 l7 37 -37 -43 c-72 -83 -178 -113 -206 -59 -7 12 -13 24 -15 25 -1 2
-19 -12 -39 -32 -57 -57 -114 -45 -130 29 -5 23 -4 26 4 15 9 -13 11 -12 11 3
0 12 4 16 13 11 6 -4 3 2 -8 13 -20 20 -20 20 -66 -29 -26 -28 -54 -48 -66
-48 -26 0 -53 35 -53 69 0 23 -4 21 -50 -27 -27 -29 -54 -52 -60 -52 -27 0
-50 22 -50 48 0 27 67 161 97 195 22 24 65 22 82 -5 13 -21 13 -21 33 10 22
35 28 38 45 21 7 -7 1 -33 -23 -91 -32 -75 -43 -128 -26 -128 10 0 142 130
142 140 0 5 4 12 10 15 6 3 8 -2 5 -12 -3 -10 0 -7 7 7 7 14 18 30 24 35 19
16 95 198 89 212 -3 9 0 11 7 7 8 -5 9 -2 5 9 -3 10 -4 24 0 33 5 13 7 13 14
2 7 -10 9 -10 10 2 0 8 3 26 5 40 3 14 5 32 6 41 1 9 8 16 15 16 9 0 8 -7 -3
-28 -8 -15 -14 -32 -14 -36 1 -4 9 8 19 27 10 19 17 40 14 46 -2 7 0 15 6 19
6 3 11 11 11 17 0 6 -7 5 -17 -3 -14 -12 -15 -12 -7 1 35 57 39 61 64 55 14
-4 29 -10 34 -15z m4997 10 c26 -14 24 -35 -11 -132 -32 -87 -104 -240 -94
-199 4 16 2 21 -5 17 -7 -5 -8 -1 -4 9 4 12 8 13 13 5 5 -8 9 -7 14 5 10 26 7
42 -5 25 -9 -13 -10 -13 -6 0 2 8 10 14 17 12 8 -2 10 3 7 13 -8 20 3 46 16
38 6 -4 8 0 4 10 -3 9 0 38 8 64 8 26 11 50 7 53 -9 7 -9 36 1 46 4 4 7 16 7
26 0 21 4 22 31 8z m-3221 -49 c0 -10 -16 -53 -35 -97 -18 -43 -58 -150 -87
-236 -29 -87 -56 -158 -60 -158 -4 0 -1 20 6 44 8 25 12 47 9 50 -3 2 5 31 17
63 12 32 26 75 31 97 5 21 14 46 19 56 5 10 6 20 3 24 -16 16 -8 56 23 118 28
55 37 65 54 61 11 -3 20 -13 20 -22z m-2478 -36 c55 -55 49 -235 -7 -235 -11
0 -11 10 0 55 14 61 11 130 -6 151 -23 28 -52 13 -134 -68 -88 -89 -116 -129
-175 -247 -54 -109 -75 -181 -63 -217 8 -25 16 -30 54 -35 57 -8 171 28 257
81 50 32 64 37 68 25 4 -8 11 -12 18 -9 32 18 -47 -47 -94 -77 -81 -51 -109
-60 -194 -61 -68 -1 -80 2 -102 23 -43 40 -61 94 -44 128 26 51 94 226 95 243
1 12 8 26 16 32 8 6 15 18 17 26 2 8 19 35 37 60 98 133 200 182 257 125z
m5604 -122 c-8 -15 -15 -25 -16 -21 0 12 23 58 27 54 3 -2 -2 -17 -11 -33z
m-3250 -44 c-13 -28 -15 -30 -16 -11 0 13 6 29 13 36 18 21 19 13 3 -25z
m3225 -16 c-12 -20 -14 -14 -5 12 4 9 9 14 11 11 3 -2 0 -13 -6 -23z m-3241
-34 c0 -6 -4 -7 -10 -4 -5 3 -10 11 -10 16 0 6 5 7 10 4 6 -3 10 -11 10 -16z
m2639 -13 c12 -14 -8 -78 -30 -91 -23 -15 -32 13 -19 59 13 47 28 57 49 32z
m555 -65 c-9 -23 -18 -40 -21 -38 -2 3 4 23 13 46 9 23 18 40 21 38 2 -3 -4
-23 -13 -46z m47 -4 c-10 -9 -11 -8 -5 6 3 10 9 15 12 12 3 -3 0 -11 -7 -18z
m-1413 -9 c22 -22 4 -118 -23 -118 -20 0 -24 23 -9 51 7 13 13 31 14 38 0 25
-70 -50 -96 -102 -27 -52 -44 -147 -27 -147 20 0 88 32 120 56 17 13 36 24 40
24 5 0 24 16 43 35 18 19 36 32 41 30 10 -7 21 24 12 37 -3 6 -1 8 4 5 6 -4
14 0 17 9 4 10 2 13 -7 8 -6 -4 -4 2 7 14 26 30 73 37 119 17 20 -8 37 -18 37
-21 0 -3 -4 -2 -10 1 -5 3 -10 2 -10 -4 0 -11 53 -4 83 11 12 6 17 5 17 -4 0
-7 8 -3 18 10 14 18 24 21 52 17 27 -4 30 -3 15 4 -14 7 4 8 59 6 140 -6 139
-42 -3 -150 -100 -75 -131 -101 -131 -109 0 -11 73 -6 152 9 43 8 85 12 94 8
12 -4 15 -3 10 5 -4 7 -3 12 3 12 18 0 21 -18 4 -31 -13 -11 -17 -11 -20 -1
-3 6 -12 12 -20 12 -12 0 -13 -3 -4 -14 14 -16 1 -20 -106 -36 -88 -12 -140 0
-149 36 -8 31 1 41 111 129 50 40 97 80 105 90 14 17 12 18 -45 11 -102 -11
-215 -53 -215 -79 0 -8 -4 -7 -10 3 -7 11 -11 9 -20 -14 -6 -16 -20 -42 -32
-58 l-21 -30 23 12 23 13 -20 -26 c-37 -48 -80 -77 -113 -77 -49 0 -70 16 -69
53 1 28 2 29 8 8 5 -20 9 -14 24 34 10 32 15 60 11 64 -3 3 -31 -22 -62 -56
-94 -102 -183 -129 -216 -65 -12 22 -11 32 2 71 8 25 25 60 38 78 13 17 24 40
24 50 -1 12 -9 4 -25 -22 -14 -22 -25 -36 -25 -31 0 16 62 106 83 121 26 18
59 19 75 3z m-1090 -24 c2 -11 -13 -57 -33 -102 -19 -44 -35 -86 -35 -93 0 -7
17 4 38 24 30 29 41 34 50 25 18 -18 93 58 88 89 -4 17 0 23 12 23 33 -1 49
-24 55 -82 3 -32 8 -62 12 -67 3 -6 23 2 47 20 23 16 48 27 55 25 7 -3 20 8
29 27 48 94 102 125 133 75 13 -21 13 -21 33 10 22 35 28 38 45 21 7 -7 1 -33
-23 -91 -32 -75 -43 -128 -26 -128 4 0 37 29 74 65 105 102 114 80 14 -38 -57
-67 -91 -81 -118 -47 -10 12 -18 34 -18 48 0 25 -3 23 -50 -26 -52 -55 -65
-60 -94 -39 -13 10 -17 23 -14 44 l4 30 -30 -18 c-17 -11 -38 -19 -47 -19 -25
0 -58 42 -67 85 -4 21 -12 40 -18 42 -6 2 -44 -34 -85 -79 -107 -120 -113
-124 -151 -88 -17 15 -18 20 -6 20 14 0 37 64 54 150 4 24 4 24 -5 3 -14 -32
-20 -29 -17 10 3 31 18 68 39 95 15 19 52 10 55 -14z m2090 0 c2 -11 -13 -57
-33 -102 -19 -44 -35 -86 -35 -93 0 -7 17 4 38 24 30 29 41 34 50 25 18 -18
93 58 88 89 -4 17 0 23 12 23 33 -1 49 -24 55 -82 8 -77 12 -83 50 -54 42 31
81 51 73 37 -4 -6 -3 -11 3 -11 5 0 13 9 16 20 4 11 11 18 16 15 5 -4 9 -1 9
6 0 7 3 9 7 6 3 -4 -3 -17 -15 -30 -12 -12 -21 -31 -21 -42 1 -11 -3 -31 -7
-44 -5 -17 -4 -22 4 -17 7 4 12 14 12 22 0 8 4 14 8 14 5 0 17 18 27 41 10 22
29 49 42 58 12 10 20 21 17 24 -3 3 13 19 37 36 28 21 36 31 24 31 -10 0 -16
3 -12 6 13 13 76 -7 82 -26 3 -10 -1 -48 -10 -85 -8 -36 -15 -78 -15 -92 0
-26 0 -26 20 -8 20 18 21 18 14 -1 -13 -36 37 20 96 108 44 67 60 84 83 86 19
2 33 -4 47 -20 11 -13 20 -18 20 -13 0 6 9 21 19 35 16 20 22 22 34 12 13 -11
11 -23 -19 -93 -32 -76 -43 -129 -26 -129 4 0 37 29 74 65 105 102 114 80 14
-38 -57 -67 -91 -81 -118 -47 -10 12 -18 34 -18 48 0 25 -3 23 -50 -26 -27
-29 -54 -52 -60 -52 -24 0 -50 22 -50 41 0 20 -1 20 -31 -5 -17 -14 -35 -26
-40 -26 -17 0 -49 20 -49 31 0 6 4 8 9 5 4 -3 11 18 15 47 3 28 8 63 11 77 3
14 -2 7 -10 -15 l-14 -40 5 55 c3 30 7 61 9 68 3 6 2 12 -1 12 -33 0 -113
-100 -172 -215 -62 -120 -81 -137 -95 -85 -3 11 -1 18 4 14 5 -3 9 -2 9 3 0 4
3 19 6 33 4 20 3 22 -5 10 -7 -10 -11 -11 -11 -3 0 7 14 26 30 43 40 41 29 56
-17 25 -20 -14 -43 -25 -53 -25 -25 0 -58 41 -68 85 -4 21 -12 40 -18 42 -6 2
-44 -34 -85 -79 -107 -120 -113 -124 -151 -88 -17 15 -18 20 -6 20 10 0 21 20
32 63 28 105 29 115 6 70 -28 -54 -129 -153 -156 -153 -12 0 -34 10 -49 22
-25 20 -27 25 -21 72 9 79 35 148 55 144 20 -4 19 -41 -4 -126 -22 -79 -12
-95 36 -55 18 15 29 21 24 13 -4 -8 4 -4 20 10 16 14 25 19 20 11 -6 -10 -4
-12 4 -7 7 5 10 10 7 13 -3 3 5 20 17 37 12 17 22 36 22 41 1 6 7 9 14 7 7 -1
10 2 6 7 -6 10 17 62 38 89 15 19 52 10 55 -14z m375 -14 c-3 -12 -8 -19 -11
-16 -5 6 5 36 12 36 2 0 2 -9 -1 -20z m-3009 -5 c20 -8 36 -18 36 -21 0 -3 -4
-2 -10 1 -5 3 -10 2 -10 -4 0 -11 52 -5 80 9 8 5 20 2 26 -5 9 -9 2 -17 -32
-33 -24 -12 -44 -27 -44 -34 0 -9 -3 -9 -10 2 -7 11 -11 9 -20 -14 -6 -16 -20
-42 -32 -58 l-21 -30 23 12 23 13 -20 -26 c-37 -48 -80 -77 -113 -77 -49 0
-70 16 -69 53 1 30 1 30 8 7 6 -22 9 -20 21 25 13 46 17 70 22 117 1 9 5 15 9
12 4 -2 10 3 13 12 4 10 2 13 -7 8 -7 -5 -6 0 3 10 29 37 70 43 124 21z m-694
-34 c0 -5 -7 -12 -16 -15 -14 -5 -15 -4 -4 9 14 17 20 19 20 6z m1330 0 c0 -5
-7 -12 -16 -15 -14 -5 -15 -4 -4 9 14 17 20 19 20 6z m2090 0 c0 -5 -7 -12
-16 -15 -14 -5 -15 -4 -4 9 14 17 20 19 20 6z m-5180 -64 c0 -2 -12 -14 -27
-28 l-28 -24 24 28 c23 25 31 32 31 24z m2212 -58 c-8 -31 -9 -32 -16 -12 -4
14 -2 28 6 37 18 20 21 14 10 -25z m3365 -31 c-3 -7 -5 -2 -5 12 0 14 2 19 5
13 2 -7 2 -19 0 -25z m-3380 -30 c-3 -8 -6 -5 -6 6 -1 11 2 17 5 13 3 -3 4
-12 1 -19z m-28 -65 c-4 -27 -8 -61 -8 -78 0 -26 2 -28 10 -10 8 18 9 17 6 -6
-2 -14 3 -31 10 -38 17 -15 12 -24 -8 -16 -26 10 -40 46 -40 107 -1 46 3 63
18 73 10 8 18 15 19 15 0 0 -3 -21 -7 -47z"/>
<path d="M1180 1015 c-8 -10 -34 -52 -56 -93 -26 -48 -44 -70 -48 -61 -3 8 -3
4 0 -8 3 -12 -2 -36 -11 -53 -18 -34 -15 -46 9 -37 19 7 128 232 124 254 -3
14 -5 14 -18 -2z"/>
<path d="M1930 1015 c-8 -10 -34 -52 -56 -93 -26 -48 -44 -70 -48 -61 -3 8 -3
4 0 -8 3 -12 -2 -36 -11 -53 -18 -34 -15 -46 9 -37 19 7 128 232 124 254 -3
14 -5 14 -18 -2z"/>
<path d="M1048 743 c7 -3 16 -2 19 1 4 3 -2 6 -13 5 -11 0 -14 -3 -6 -6z"/>
<path d="M1798 743 c7 -3 16 -2 19 1 4 3 -2 6 -13 5 -11 0 -14 -3 -6 -6z"/>
<path d="M1039 728 c-4 -15 -6 -38 -3 -38 2 0 8 9 14 20 7 14 7 20 0 20 -5 0
-10 -1 -11 -2z"/>
<path d="M1789 728 c-4 -15 -6 -38 -3 -38 2 0 8 9 14 20 7 14 7 20 0 20 -5 0
-10 -1 -11 -2z"/>
<path d="M2708 620 c-43 -33 -123 -190 -98 -190 5 0 11 4 15 10 3 5 11 7 19 4
16 -6 110 133 108 160 -2 32 -17 38 -44 16z"/>
<path d="M687 568 c-28 -37 -80 -138 -72 -138 3 0 31 25 61 56 31 31 53 50 49
43 -5 -8 -4 -10 4 -5 6 4 9 11 7 15 -3 4 -1 13 4 21 5 8 3 18 -5 27 -19 18
-21 17 -48 -19z"/>
<path d="M1927 568 c-28 -37 -80 -138 -72 -138 3 0 31 25 61 56 31 31 53 50
49 43 -5 -8 -4 -10 4 -5 6 4 9 11 7 15 -3 4 -1 13 4 21 5 8 3 18 -5 27 -19 18
-21 17 -48 -19z"/>
<path d="M2256 491 c-10 -11 -13 -22 -8 -25 5 -3 17 3 26 13 10 11 13 22 8 25
-5 3 -17 -3 -26 -13z m24 5 c0 -2 -8 -10 -17 -17 -16 -13 -17 -12 -4 4 13 16
21 21 21 13z"/>
<path d="M695 490 c-3 -5 -1 -10 4 -10 6 0 11 5 11 10 0 6 -2 10 -4 10 -3 0
-8 -4 -11 -10z"/>
<path d="M1935 490 c-3 -5 -1 -10 4 -10 6 0 11 5 11 10 0 6 -2 10 -4 10 -3 0
-8 -4 -11 -10z"/>
<path d="M390 949 c0 -5 5 -7 10 -4 6 3 10 8 10 11 0 2 -4 4 -10 4 -5 0 -10
-5 -10 -11z"/>
<path d="M240 770 c-6 -11 -15 -18 -20 -15 -5 3 -12 0 -16 -6 -4 -8 -3 -9 4
-5 15 9 15 1 1 -27 -10 -22 -10 -22 6 -2 20 24 47 75 41 75 -3 0 -10 -9 -16
-20z"/>
<path d="M156 611 c-14 -32 -26 -62 -26 -67 1 -5 14 20 31 55 16 35 28 66 26
68 -2 2 -16 -23 -31 -56z"/>
<path d="M115 500 c-4 -17 -5 -34 -2 -36 2 -3 7 10 11 27 8 42 0 50 -9 9z"/>
<path d="M469 470 c-19 -16 -38 -29 -42 -30 -4 0 -13 -5 -20 -10 -7 -6 -21
-18 -32 -26 -11 -8 13 2 53 22 66 34 93 57 80 69 -2 3 -20 -9 -39 -25z"/>
<path d="M4920 605 c-10 -13 -9 -15 9 -15 12 0 21 6 21 15 0 8 -4 15 -9 15 -5
0 -14 -7 -21 -15z"/>
<path d="M5167 530 c-73 -56 -127 -106 -127 -118 0 -3 13 6 28 21 29 28 49 36
36 15 -5 -9 -2 -8 9 1 10 8 15 16 12 19 -7 7 15 32 27 32 6 0 4 -8 -3 -17 -13
-16 -12 -17 4 -4 9 8 15 16 12 19 -6 7 15 32 27 32 5 0 6 -6 2 -12 -4 -7 -4
-10 0 -6 4 3 7 9 6 13 -1 4 11 20 26 36 15 16 26 29 23 29 -2 -1 -39 -28 -82
-60z"/>
<path d="M4861 553 c-30 -12 -78 -153 -52 -153 15 0 105 86 124 119 17 30 17
31 0 31 -10 0 -27 2 -38 5 -11 2 -26 1 -34 -2z"/>
<path d="M5173 373 c9 -2 25 -2 35 0 9 3 1 5 -18 5 -19 0 -27 -2 -17 -5z"/>
<path d="M3987 568 c-28 -37 -80 -138 -72 -138 3 0 31 25 61 56 31 31 53 50
49 43 -5 -8 -4 -10 4 -5 6 4 9 11 7 15 -3 4 -1 13 4 21 5 8 3 18 -5 27 -19 18
-21 17 -48 -19z"/>
<path d="M3586 491 c-10 -11 -13 -22 -8 -25 5 -3 17 3 26 13 10 11 13 22 8 25
-5 3 -17 -3 -26 -13z m24 5 c0 -2 -8 -10 -17 -17 -16 -13 -17 -12 -4 4 13 16
21 21 21 13z"/>
<path d="M3995 490 c-3 -5 -1 -10 4 -10 6 0 11 5 11 10 0 6 -2 10 -4 10 -3 0
-8 -4 -11 -10z"/>
<path d="M6119 593 c-13 -16 -12 -17 4 -4 16 13 21 21 13 21 -2 0 -10 -8 -17
-17z"/>
<path d="M6407 568 c-28 -37 -80 -138 -72 -138 3 0 31 25 61 56 31 31 53 50
49 43 -5 -8 -4 -10 4 -5 6 4 9 11 7 15 -3 4 -1 13 4 21 5 8 3 18 -5 27 -19 18
-21 17 -48 -19z"/>
<path d="M5676 491 c-10 -11 -13 -22 -8 -25 5 -3 17 3 26 13 10 11 13 22 8 25
-5 3 -17 -3 -26 -13z m24 5 c0 -2 -8 -10 -17 -17 -16 -13 -17 -12 -4 4 13 16
21 21 21 13z"/>
<path d="M6415 490 c-3 -5 -1 -10 4 -10 6 0 11 5 11 10 0 6 -2 10 -4 10 -3 0
-8 -4 -11 -10z"/>
<path d="M3030 605 c-10 -13 -9 -15 9 -15 12 0 21 6 21 15 0 8 -4 15 -9 15 -5
0 -14 -7 -21 -15z"/>
<path d="M2971 553 c-30 -12 -78 -153 -52 -153 15 0 105 86 124 119 17 30 17
31 0 31 -10 0 -27 2 -38 5 -11 2 -26 1 -34 -2z"/>
</g>
</svg>
